<svg width="138" height="70" viewBox="0 0 138 70" fill="none" xmlns="http://www.w3.org/2000/svg">
<path d="M68.9991 0.511719C31.2405 0.511719 0.648438 15.8623 0.648438 34.8051C0.648438 53.748 31.2405 69.0986 68.9991 69.0986C106.758 69.0986 137.344 53.748 137.344 34.8051C137.344 15.8623 106.745 0.511719 68.9991 0.511719ZM68.9991 65.6093C33.3063 65.6093 4.39218 51.8156 4.39218 34.7991C4.39218 17.7826 33.3063 3.99498 68.9991 3.99498C104.692 3.99498 133.606 17.7826 133.606 34.7991C133.606 51.8156 104.686 65.6093 68.9991 65.6093Z" fill="url(#paint0_linear_337_3473)"/>
<path d="M68.9991 0.511719C31.2405 0.511719 0.648438 15.8623 0.648438 34.8051C0.648438 53.748 31.2405 69.0986 68.9991 69.0986C106.758 69.0986 137.344 53.748 137.344 34.8051C137.344 15.8623 106.745 0.511719 68.9991 0.511719ZM68.9991 68.8563C31.5071 68.8563 1.12701 53.6147 1.12701 34.7991C1.12701 15.9834 31.5071 0.747974 68.9991 0.747974C106.491 0.747974 136.865 15.9956 136.865 34.7991C136.865 53.6026 106.485 68.8563 68.9991 68.8563Z" fill="#0730C6"/>
<path d="M69.0113 3.53442C33.1186 3.53442 4.04102 17.528 4.04102 34.7989C4.04102 52.0698 33.1186 66.0756 69.0113 66.0756C104.904 66.0756 133.976 52.0759 133.976 34.7989C133.976 17.522 104.898 3.53442 69.0113 3.53442ZM69.0174 66.2815C33.3307 66.2815 4.40448 51.8154 4.40448 34.7989C4.40448 17.7825 33.3185 3.99482 69.0113 3.99482C104.704 3.99482 133.618 17.7825 133.618 34.7989C133.618 51.8154 104.704 66.2815 69.0174 66.2815Z" fill="url(#paint1_linear_337_3473)"/>
<path d="M109.53 34.8158C109.53 48.9366 91.4054 60.3799 69.0338 60.3799C46.6622 60.3799 28.5371 48.9366 28.5371 34.8158C28.5371 20.695 46.6743 9.25171 69.0338 9.25171C91.3933 9.25171 109.53 20.695 109.53 34.8158Z" fill="#EA0029"/>
<path d="M109.191 34.7677C109.191 48.7371 91.2472 60.0592 69.1119 60.0592C46.9766 60.0592 30.1055 48.834 30.1055 34.8646C30.1055 20.8952 46.8736 9.979 69.015 9.979C91.1564 9.979 109.191 20.8104 109.191 34.7737V34.7677Z" fill="white"/>
<path d="M69.1259 9.70093C47.4025 9.70093 29.3926 21.8227 29.3926 34.7622C29.3926 48.7316 46.93 60.193 69.0714 60.193C91.2128 60.193 109.205 48.7316 109.205 34.7622C109.205 20.7928 91.2613 9.70093 69.1259 9.70093ZM69.2713 57.5579C48.9655 57.5579 32.5063 47.4231 32.5063 34.9197C32.5063 22.4163 48.9655 12.2816 69.2713 12.2816C89.5772 12.2816 106.03 22.4224 106.03 34.9197C106.03 47.417 89.5712 57.5579 69.2713 57.5579Z" fill="url(#paint2_linear_337_3473)"/>
<path d="M106.271 34.76C106.271 47.3179 89.6421 57.2285 69.203 57.2285C48.7638 57.2285 32.8014 47.3058 32.7287 34.7479C32.6621 22.6806 48.8183 12.0249 69.2636 12.0249C89.7088 12.0249 106.277 22.2081 106.277 34.76H106.271Z" fill="#FFCDC4"/>
<path d="M106.024 34.9199C106.024 47.4233 89.4195 57.7519 69.1196 57.7519C48.8198 57.7519 32.5 47.4233 32.5 34.9199C32.5 22.4165 48.9592 12.2817 69.265 12.2817C89.5709 12.2817 106.024 22.4226 106.024 34.9199Z" fill="#EA0029"/>
<path d="M52.163 43.067H46.3172L45.7296 45.7203H37.291L45.0329 24.1726H53.6351L61.165 45.7203H52.8294L52.1691 43.067H52.163ZM50.8606 37.8633L49.4915 32.7929L49.3885 32.2114L49.2492 30.8059L49.0856 32.175L48.9826 32.8111L47.6257 37.8694H50.8606V37.8633Z" fill="white"/>
<path d="M63.0977 24.1868H73.608C75.6919 24.1868 77.4305 24.7926 78.5936 25.78C79.8415 26.8583 80.3383 28.2031 80.4413 29.6994C80.5261 30.9837 80.1626 32.3224 79.3569 33.2493C78.8299 33.8551 78.1998 34.2064 77.17 34.5578C78.7208 34.9394 79.7022 35.4907 80.4352 36.4054C81.1682 37.3202 81.3984 38.3682 81.3984 39.7554C81.3984 40.8943 81.144 41.9059 80.6169 42.8025C80.096 43.7112 79.4114 44.2443 78.5149 44.7713C77.9515 45.0984 77.2367 45.3589 76.122 45.5891C75.3345 45.7527 74.1653 45.7708 73.0749 45.7708H63.0977V24.1868ZM70.3428 32.3224H70.882C71.9179 32.3224 72.2511 32.2982 72.7478 31.9771C73.4566 31.5228 73.4566 30.0932 72.7539 29.6812C72.1784 29.348 71.936 29.3299 70.9304 29.3299H70.3428V32.3164V32.3224ZM70.3428 40.4278H71.4514C72.6024 40.4278 73.1537 40.234 73.6383 39.8281C74.1411 39.398 74.2441 38.0592 73.5959 37.5443C73.1113 37.1687 72.6085 36.987 71.4454 36.987H70.3549V40.4278H70.3428Z" fill="white"/>
<path d="M100.45 32.7721C100.45 32.7721 99.9108 32.0937 98.7356 31.4576C97.9723 31.0517 96.997 30.6701 95.5492 30.7306C94.4285 30.7852 93.4834 31.294 92.8474 31.9604C92.1204 32.7297 91.8478 33.7717 91.8115 34.2563C91.7751 34.8803 91.5873 36.2433 92.3809 37.3943C93.0776 38.418 94.1135 39.1874 95.9187 39.1874C97.0454 39.1874 98.1116 38.727 98.7356 38.3999C99.9229 37.7638 100.607 37.1459 100.607 37.1459L100.42 45.2149C100.42 45.2149 98.9173 46.2872 94.8767 46.3175C90.297 46.3478 83.8272 42.7615 83.8575 34.9045C83.8818 30.3611 86.0929 27.2898 88.8371 25.4846C90.9089 24.1276 93.3744 23.6309 94.9434 23.6309C98.6144 23.6309 100.432 24.7576 100.432 24.7576L100.45 32.7661V32.7721Z" fill="white"/>
<path d="M68.8147 3.76978C39.2161 3.76978 20.6367 17.1334 20.6367 34.689C20.6367 55.2372 43.3657 65.796 69.0207 65.796C94.6756 65.796 116.944 53.9771 116.944 34.8101C116.944 17.2545 98.2074 3.76978 68.8147 3.76978ZM68.8874 62.6701C44.862 62.6701 25.3921 50.1183 25.3921 34.6345C25.3921 19.1506 44.862 6.59273 68.8874 6.59273C92.9128 6.59273 112.383 19.1506 112.383 34.6345C112.383 50.1183 92.9128 62.6701 68.8874 62.6701Z" fill="url(#paint3_linear_337_3473)"/>
<path d="M69.0706 3.81824C43.5065 3.6365 21.8255 17.6422 21.8255 34.9434C21.8255 52.2446 42.9431 66.2806 69.004 66.2806C95.0648 66.2806 116.182 52.2446 116.182 34.9434C116.182 17.6422 92.787 3.9818 69.0706 3.81824ZM69.004 65.796C43.3429 65.796 21.6074 51.9781 21.6074 34.9434C21.6074 17.9088 42.8644 3.76978 68.5254 3.76978C94.1864 3.76978 116.437 17.727 116.437 34.7617C116.437 51.7963 94.6589 65.796 69.004 65.796Z" fill="#8990D0"/>
<path d="M66.0352 3.77551C92.7321 6.90135 115.285 20.0105 115.285 34.9491C115.285 52.5048 95.1673 64.6326 74.4798 66.1349C99.9348 66.5589 133.78 53.1105 133.671 34.6765C133.574 18.2598 105.029 3.2303 66.0352 3.76945V3.77551Z" fill="#0730C6"/>
<path d="M21.8363 34.9448C22.0725 20.0061 37.0899 6.71523 66.2281 3.81958C31.753 4.45565 1.67578 19.8729 1.67578 35.2113C1.67578 50.5498 33.0796 66.6878 61.5818 66.0094C39.0951 63.1198 21.5879 50.6891 21.8302 34.9448H21.8363Z" fill="#0730C6"/>
<path d="M68.8879 6.21484C44.596 6.21484 24.9141 18.9424 24.9141 34.6382C24.9141 50.3341 44.596 63.0616 68.8879 63.0616C93.1799 63.0616 112.868 50.3341 112.868 34.6382C112.868 18.9424 93.1799 6.21484 68.8879 6.21484ZM68.8879 62.6739C44.8625 62.6739 25.3926 50.1221 25.3926 34.6382C25.3926 19.1544 44.8625 6.59649 68.8879 6.59649C92.9133 6.59649 112.383 19.1544 112.383 34.6382C112.383 50.1221 92.9133 62.6739 68.8879 62.6739Z" fill="url(#paint4_linear_337_3473)"/>
<defs>
<linearGradient id="paint0_linear_337_3473" x1="83.7438" y1="0.0452657" x2="56.7198" y2="63.7495" gradientUnits="userSpaceOnUse">
<stop offset="0.13" stop-color="#CAD1EA"/>
<stop offset="0.26" stop-color="#8BA0D3"/>
<stop offset="0.53" stop-color="#0033A1"/>
<stop offset="0.94" stop-color="#0033A1"/>
<stop offset="1" stop-color="#0033A1"/>
</linearGradient>
<linearGradient id="paint1_linear_337_3473" x1="4.04707" y1="34.908" x2="133.976" y2="34.908" gradientUnits="userSpaceOnUse">
<stop stop-color="#8990D0"/>
<stop offset="0.26" stop-color="#868ECF"/>
<stop offset="0.43" stop-color="#7D88CC"/>
<stop offset="0.57" stop-color="#6E7EC7"/>
<stop offset="0.69" stop-color="#5A70BF"/>
<stop offset="0.81" stop-color="#3E5DB6"/>
<stop offset="0.92" stop-color="#1E47AB"/>
<stop offset="1" stop-color="#0033A1"/>
</linearGradient>
<linearGradient id="paint2_linear_337_3473" x1="79.8847" y1="13.2569" x2="55.4958" y2="63.3067" gradientUnits="userSpaceOnUse">
<stop offset="0.13" stop-color="#FFCDC4"/>
<stop offset="0.26" stop-color="#F88E94"/>
<stop offset="0.53" stop-color="#EA0029"/>
<stop offset="0.94" stop-color="#EA0029"/>
<stop offset="1" stop-color="#EA0029"/>
</linearGradient>
<linearGradient id="paint3_linear_337_3473" x1="38.047" y1="60.7619" x2="98.4012" y2="9.48837" gradientUnits="userSpaceOnUse">
<stop offset="0.13" stop-color="#CAD1EA"/>
<stop offset="0.26" stop-color="#8BA0D3"/>
<stop offset="0.53" stop-color="#0033A1"/>
<stop offset="0.94" stop-color="#0033A1"/>
<stop offset="1" stop-color="#0033A1"/>
</linearGradient>
<linearGradient id="paint4_linear_337_3473" x1="47.5825" y1="58.6697" x2="91.0172" y2="9.68597" gradientUnits="userSpaceOnUse">
<stop stop-color="#8990D0"/>
<stop offset="0.26" stop-color="#868ECF"/>
<stop offset="0.43" stop-color="#7D88CC"/>
<stop offset="0.57" stop-color="#6E7EC7"/>
<stop offset="0.69" stop-color="#5A70BF"/>
<stop offset="0.81" stop-color="#3E5DB6"/>
<stop offset="0.92" stop-color="#1E47AB"/>
<stop offset="1" stop-color="#0033A1"/>
</linearGradient>
</defs>
</svg>
